<svg width="136" height="41" viewBox="0 0 136 41" fill="none" xmlns="http://www.w3.org/2000/svg">
<path d="M21.4297 24.6484C20.9766 24.6328 20.5 24.6094 20 24.5781C19.5156 24.5312 18.9375 24.5 18.2656 24.4844C16.7969 24.4531 15.2031 24.5156 13.4844 24.6719C13.0938 26.0156 12.4453 27.6719 11.5391 29.6406C10.6484 31.5938 9.76562 33.25 8.89062 34.6094C7.01562 37.5156 5.10938 39.3125 3.17188 40C2.89062 40.1094 2.60156 40.1641 2.30469 40.1641C2.02344 40.1641 1.76562 40.1094 1.53125 40C1.29688 39.9062 1.10156 39.7812 0.945312 39.625C0.617188 39.3281 0.453125 39 0.453125 38.6406C0.453125 38.2812 0.570312 38.0156 0.804688 37.8438C3.02344 36.2344 5.30469 32.1797 7.64844 25.6797C7.47656 25.7266 7.30469 25.7734 7.13281 25.8203C6.96094 25.8672 6.8125 25.9141 6.6875 25.9609C6.5625 26.0078 6.41406 26.0312 6.24219 26.0312C6.08594 26.0312 5.90625 25.9844 5.70312 25.8906C5.51562 25.7812 5.34375 25.6562 5.1875 25.5156C4.84375 25.2031 4.67188 24.8984 4.67188 24.6016C4.67188 24.3047 4.80469 24.0312 5.07031 23.7812C5.35156 23.5156 5.69531 23.2656 6.10156 23.0312C6.85156 22.5938 7.79688 22.1875 8.9375 21.8125L10.2031 17.875C11.6875 13.2656 13.1094 10.0703 14.4688 8.28906C13.1875 8.17969 12.2422 8.125 11.6328 8.125C9.78906 8.125 8.46094 8.38281 7.64844 8.89844C6.85156 9.41406 6.28906 9.97656 5.96094 10.5859C5.64844 11.1797 5.48438 11.5938 5.46875 11.8281C5.42188 12.2656 5.28125 12.5469 5.04688 12.6719C4.8125 12.7812 4.52344 12.8359 4.17969 12.8359C3.85156 12.8359 3.50781 12.7188 3.14844 12.4844C2.78906 12.2344 2.49219 11.9219 2.25781 11.5469C1.75781 10.7812 1.5625 9.92188 1.67188 8.96875C1.78125 8 2.09375 7.17187 2.60938 6.48438C3.14062 5.78125 3.76562 5.21094 4.48438 4.77344C5.8125 3.96094 7.21094 3.55469 8.67969 3.55469C10.1641 3.55469 11.5625 3.63281 12.875 3.78906C14.2031 3.92969 15.5234 4.09375 16.8359 4.28125C20.3203 4.75 22.5391 4.98438 23.4922 4.98438C24.4453 4.98438 25.1484 4.92969 25.6016 4.82031C26.0703 4.71094 26.4688 4.54687 26.7969 4.32812C27.125 4.10938 27.3516 3.96875 27.4766 3.90625C27.6172 3.82813 27.8359 3.78906 28.1328 3.78906C28.6016 3.78906 28.8047 4.14844 28.7422 4.86719C28.6797 5.57031 28.5078 6.17969 28.2266 6.69531C27.9453 7.19531 27.5781 7.60938 27.125 7.9375C26.2031 8.60938 25.0312 8.94531 23.6094 8.94531C22.1875 8.94531 20.4609 8.85156 18.4297 8.66406C17.9141 9.71094 17.4219 11.0859 16.9531 12.7891L14.7969 20.5234C16.2656 20.2891 17.3828 20.1719 18.1484 20.1719C18.9297 20.1719 19.5703 20.25 20.0703 20.4062C20.5703 20.5625 21.0156 20.7812 21.4062 21.0625C22.3125 21.6719 22.7578 22.4219 22.7422 23.3125C22.7266 24.2031 22.2891 24.6484 21.4297 24.6484ZM27.7578 38.4062C27.1016 37.7812 26.5859 36.9922 26.2109 36.0391C25.8359 35.0703 25.6406 33.9297 25.625 32.6172C25.6094 31.3047 25.7656 29.9766 26.0938 28.6328C26.4375 27.2891 26.9141 25.9922 27.5234 24.7422C28.1484 23.4922 28.8906 22.3203 29.75 21.2266C30.625 20.1328 31.5859 19.1797 32.6328 18.3672C34.9141 16.6172 37.2812 15.7422 39.7344 15.7422C42.9531 15.7422 45.1328 17.1562 46.2734 19.9844C47.0859 22.0312 47.1328 24.5078 46.4141 27.4141C45.7578 30.0859 44.5547 32.5391 42.8047 34.7734C41.0703 37.0078 39.0234 38.5938 36.6641 39.5312C35.4766 40 34.3047 40.2344 33.1484 40.2344C32.0078 40.2344 30.9844 40.0859 30.0781 39.7891C29.1875 39.4922 28.4141 39.0312 27.7578 38.4062ZM32.2344 27.0391C31.7656 28.1953 31.3906 29.3828 31.1094 30.6016C30.8438 31.8203 30.7188 32.9766 30.7344 34.0703C30.75 35.1484 30.9141 36 31.2266 36.625C31.5547 37.2344 32.0781 37.5391 32.7969 37.5391C33.5156 37.5391 34.2188 37.2969 34.9062 36.8125C35.6094 36.3125 36.2891 35.6562 36.9453 34.8438C37.6016 34.0312 38.2188 33.0938 38.7969 32.0312C39.375 30.9688 39.8828 29.8594 40.3203 28.7031C41.2734 26.1875 41.7344 23.9531 41.7031 22C41.7031 20.2812 41.3516 19.1875 40.6484 18.7188C40.3672 18.5312 39.9688 18.4375 39.4531 18.4375C38.9531 18.4375 38.375 18.6719 37.7188 19.1406C37.0625 19.5938 36.4062 20.2109 35.75 20.9922C35.0938 21.7734 34.4609 22.6875 33.8516 23.7344C33.2422 24.7812 32.7031 25.8828 32.2344 27.0391ZM52.4609 38.4062C51.8047 37.7812 51.2891 36.9922 50.9141 36.0391C50.5391 35.0703 50.3438 33.9297 50.3281 32.6172C50.3125 31.3047 50.4688 29.9766 50.7969 28.6328C51.1406 27.2891 51.6172 25.9922 52.2266 24.7422C52.8516 23.4922 53.5938 22.3203 54.4531 21.2266C55.3281 20.1328 56.2891 19.1797 57.3359 18.3672C59.6172 16.6172 61.9844 15.7422 64.4375 15.7422C67.6562 15.7422 69.8359 17.1562 70.9766 19.9844C71.7891 22.0312 71.8359 24.5078 71.1172 27.4141C70.4609 30.0859 69.2578 32.5391 67.5078 34.7734C65.7734 37.0078 63.7266 38.5938 61.3672 39.5312C60.1797 40 59.0078 40.2344 57.8516 40.2344C56.7109 40.2344 55.6875 40.0859 54.7812 39.7891C53.8906 39.4922 53.1172 39.0312 52.4609 38.4062ZM56.9375 27.0391C56.4688 28.1953 56.0938 29.3828 55.8125 30.6016C55.5469 31.8203 55.4219 32.9766 55.4375 34.0703C55.4531 35.1484 55.6172 36 55.9297 36.625C56.2578 37.2344 56.7812 37.5391 57.5 37.5391C58.2188 37.5391 58.9219 37.2969 59.6094 36.8125C60.3125 36.3125 60.9922 35.6562 61.6484 34.8438C62.3047 34.0312 62.9219 33.0938 63.5 32.0312C64.0781 30.9688 64.5859 29.8594 65.0234 28.7031C65.9766 26.1875 66.4375 23.9531 66.4062 22C66.4062 20.2812 66.0547 19.1875 65.3516 18.7188C65.0703 18.5312 64.6719 18.4375 64.1562 18.4375C63.6562 18.4375 63.0781 18.6719 62.4219 19.1406C61.7656 19.5938 61.1094 20.2109 60.4531 20.9922C59.7969 21.7734 59.1641 22.6875 58.5547 23.7344C57.9453 24.7812 57.4062 25.8828 56.9375 27.0391ZM98.3984 35.2656C98.7266 35.2656 98.8906 35.4375 98.8906 35.7812C98.8906 37.125 98.1953 38.2812 96.8047 39.25C95.8828 39.9062 95.0078 40.2344 94.1797 40.2344C93.3672 40.2344 92.7188 40.1406 92.2344 39.9531C91.75 39.7656 91.3125 39.4688 90.9219 39.0625C90.0469 38.125 89.6094 36.8359 89.6094 35.1953C89.6094 34.8672 89.6719 34.3438 89.7969 33.625C88.5312 35.5781 87.4453 36.9531 86.5391 37.75C84.7109 39.4062 82.9219 40.2344 81.1719 40.2344C78.4062 40.2344 76.5938 38.9844 75.7344 36.4844C75.4219 35.5625 75.2656 34.4062 75.2656 33.0156C75.2656 31.625 75.4766 30.2188 75.8984 28.7969C76.3203 27.375 76.8906 26.0234 77.6094 24.7422C78.3438 23.4609 79.1875 22.2734 80.1406 21.1797C81.1094 20.0703 82.125 19.1094 83.1875 18.2969C85.4688 16.5938 87.5312 15.7422 89.375 15.7422C91.2188 15.7422 92.6953 16.4922 93.8047 17.9922C96.5234 8.67969 98.5703 3.1875 99.9453 1.51562C100.523 0.828125 101.133 0.484375 101.773 0.484375C102.836 0.484375 103.641 0.789062 104.188 1.39844C104.359 1.60156 104.445 1.80469 104.445 2.00781C104.445 2.21094 104.32 2.58594 104.07 3.13281C103.82 3.67969 103.453 4.5625 102.969 5.78125C101.578 9.45312 100.602 12.1406 100.039 13.8438C98.6016 18.2031 97.6328 21.2031 97.1328 22.8438L95.8438 27.1797C94.7344 31.0391 94.1797 33.4922 94.1797 34.5391C94.1797 35.5859 94.5625 36.1094 95.3281 36.1094C96.0312 36.1094 96.5938 36.0156 97.0156 35.8281L97.9062 35.4062C98.0781 35.3125 98.2422 35.2656 98.3984 35.2656ZM82.2969 36.7188C83.9062 36.7188 85.75 35.1484 87.8281 32.0078C90 28.7578 91.5156 25.2188 92.375 21.3906C92.3125 20.3281 91.8672 19.5469 91.0391 19.0469C90.7578 18.875 90.3281 18.7891 89.75 18.7891C89.1875 18.7891 88.5234 19 87.7578 19.4219C87.0078 19.8281 86.2734 20.3828 85.5547 21.0859C84.8516 21.7891 84.1875 22.6172 83.5625 23.5703C82.9531 24.5078 82.4219 25.5078 81.9688 26.5703C80.9844 28.8828 80.4922 31.1562 80.4922 33.3906C80.4922 35.6094 81.0938 36.7188 82.2969 36.7188ZM114.406 10.2578C114.062 10.6172 113.672 10.9141 113.234 11.1484C112.797 11.3672 112.336 11.5078 111.852 11.5703C111.367 11.6172 110.906 11.5391 110.469 11.3359C110.047 11.1328 109.68 10.8438 109.367 10.4688C108.695 9.6875 108.359 8.89844 108.359 8.10156C108.359 7.30469 108.484 6.71094 108.734 6.32031C109 5.91406 109.328 5.58594 109.719 5.33594C110.469 4.85156 111.172 4.60938 111.828 4.60938C112.5 4.60938 113.016 4.65625 113.375 4.75C113.75 4.84375 114.094 5 114.406 5.21875C115.172 5.73438 115.555 6.36719 115.555 7.11719C115.555 7.85156 115.445 8.46875 115.227 8.96875C115.023 9.45312 114.75 9.88281 114.406 10.2578ZM109.602 35.6172C110.008 35.6172 110.211 35.8828 110.211 36.4141C110.211 37.1172 109.891 37.8438 109.25 38.5938C108.312 39.6875 107.055 40.2344 105.477 40.2344C103.664 40.2344 102.422 39.5 101.75 38.0312C101.5 37.5156 101.375 36.8906 101.375 36.1562C101.375 35.4219 101.5 34.6094 101.75 33.7188C102.016 32.8125 102.336 31.8672 102.711 30.8828C103.102 29.8828 103.523 28.875 103.977 27.8594L105.219 24.9062C106.125 22.7031 106.578 21.25 106.578 20.5469C106.578 19.8438 106.5 19.3828 106.344 19.1641C106.203 18.9297 106.047 18.75 105.875 18.625L105.406 18.2969C105.25 18.1875 105.172 18 105.172 17.7344C105.172 17.4531 105.273 17.1875 105.477 16.9375C105.695 16.6875 105.977 16.4688 106.32 16.2812C107.023 15.9219 107.844 15.7422 108.781 15.7422C111.078 15.7422 112.227 16.3438 112.227 17.5469C112.227 18.9531 111.859 20.5625 111.125 22.375C110.391 24.1719 109.766 25.625 109.25 26.7344L107.844 29.9688C106.812 32.3438 106.297 34.0547 106.297 35.1016C106.297 35.7891 106.641 36.1328 107.328 36.1328C108 36.1328 108.508 36.0469 108.852 35.875C109.195 35.7031 109.445 35.6172 109.602 35.6172ZM115.719 31.7969C115.781 30.4375 116.008 29.1406 116.398 27.9062C116.789 26.6562 117.312 25.4531 117.969 24.2969C118.625 23.125 119.391 22.0234 120.266 20.9922C121.156 19.9453 122.117 19.0312 123.148 18.25C125.383 16.5781 127.641 15.7422 129.922 15.7422C132.594 15.7422 134.375 16.8438 135.266 19.0469C135.578 19.7969 135.727 20.6875 135.711 21.7188C135.695 22.7344 135.5 23.6797 135.125 24.5547C134.75 25.4141 134.227 26.2031 133.555 26.9219C132.898 27.625 132.109 28.2578 131.188 28.8203C130.281 29.3828 129.289 29.8594 128.211 30.25C125.992 31.0312 123.617 31.4375 121.086 31.4688C121.023 31.6875 120.984 32.0156 120.969 32.4531C120.953 32.8906 121 33.3828 121.109 33.9297C121.219 34.4609 121.406 34.9375 121.672 35.3594C122.234 36.2969 123.047 36.7656 124.109 36.7656C125.922 36.7656 127.688 36.2344 129.406 35.1719C130.016 34.8125 130.508 34.4453 130.883 34.0703C131.273 33.6797 131.609 33.4844 131.891 33.4844C132.172 33.4844 132.414 33.6562 132.617 34C132.836 34.3281 132.945 34.7031 132.945 35.125C132.945 35.9531 132.711 36.6719 132.242 37.2812C130.273 39.25 127.344 40.2344 123.453 40.2344C121.156 40.2344 119.312 39.5469 117.922 38.1719C116.359 36.6094 115.625 34.4844 115.719 31.7969ZM129.406 18.8594C127.766 18.8594 126.188 19.9844 124.672 22.2344C123.391 24.1719 122.359 26.4688 121.578 29.125C124.188 28.8594 126.453 27.8281 128.375 26.0312C130.141 24.3438 131.023 22.7266 131.023 21.1797C131.023 19.6328 130.484 18.8594 129.406 18.8594Z" fill="white"/>
</svg>
