<svg width="24" height="24" viewBox="0 0 24 24" fill="none" xmlns="http://www.w3.org/2000/svg">
<path d="M15.25 21.9999V18.1299C15.2875 17.6531 15.2231 17.1737 15.061 16.7237C14.8989 16.2737 14.6429 15.8634 14.31 15.5199C17.45 15.1699 20.75 13.9799 20.75 8.51994C20.7497 7.12376 20.2127 5.78114 19.25 4.76994C19.7059 3.54844 19.6736 2.19829 19.16 0.999938C19.16 0.999938 17.98 0.649938 15.25 2.47994C12.958 1.85876 10.542 1.85876 8.25 2.47994C5.52 0.649938 4.34 0.999938 4.34 0.999938C3.82638 2.19829 3.79414 3.54844 4.25 4.76994C3.28013 5.78864 2.74252 7.1434 2.75 8.54994C2.75 13.9699 6.05 15.1599 9.19 15.5499C8.861 15.8899 8.60726 16.2953 8.44531 16.7399C8.28335 17.1844 8.21681 17.658 8.25 18.1299V21.9999M8.25 18.9999C3.25 20.4999 3.25 16.4999 1.25 15.9999L8.25 18.9999Z" stroke="black" stroke-width="2" stroke-linecap="round" stroke-linejoin="round"/>
</svg>
