<svg width="154" height="36" viewBox="0 0 154 36" fill="none" xmlns="http://www.w3.org/2000/svg">
<path d="M91.6738 17.8506C89.9726 16.1825 87.572 16.9172 86.3148 17.49L75.63 7.01324C75.0373 6.43195 74.5115 5.7886 74.062 5.09476C73.9232 4.87978 73.7844 4.66889 73.6346 4.45935C75.6854 3.86574 77.8452 3.72711 79.9574 4.05353C82.0696 4.37994 84.0813 5.16321 85.8464 6.34653C87.6116 7.52985 89.0861 9.08355 90.1629 10.895C91.2397 12.7064 91.8918 14.73 92.0721 16.8192C92.1886 16.9131 92.3024 17.0138 92.412 17.1213C92.9768 17.6751 93.475 18.4479 93.9107 19.3241C93.9477 18.886 93.9666 18.4434 93.9676 17.9962C93.9656 15.463 93.3477 12.9667 92.1651 10.7145C90.9826 8.4622 89.2694 6.51888 87.1677 5.04566C85.066 3.57244 82.6364 2.61178 80.0803 2.24337C77.5243 1.87496 74.9155 2.10942 72.4704 2.92729C71.9621 2.31324 71.422 1.72513 70.8524 1.16529L70.1669 0.493139C70.0074 0.336795 69.8181 0.212776 69.6098 0.128163C69.4015 0.0435497 69.1782 0 68.9527 0C68.7272 0 68.5039 0.0435497 68.2956 0.128163C68.0873 0.212776 67.898 0.336795 67.7385 0.493139C67.5791 0.649484 67.4526 0.835092 67.3663 1.03937C67.28 1.24364 67.2356 1.46258 67.2356 1.68368C67.2356 1.90479 67.28 2.12373 67.3663 2.328C67.4526 2.53227 67.5791 2.71788 67.7385 2.87423L68.5947 3.71373C68.8264 3.94231 69.0651 4.1641 69.3066 4.38179C69.7881 4.81447 70.2862 5.22946 70.8024 5.62132C71.2557 5.96783 71.7229 6.2971 72.2039 6.60913L72.4815 6.79418C73.1149 7.20742 73.7052 7.68095 74.2438 8.20786L85.009 18.7636C84.4248 19.9976 83.6741 22.3502 85.3767 24.0196C87.7815 26.3776 95.2775 27.6661 95.2775 27.6661C95.2775 27.6661 94.0786 20.2085 91.6738 17.8506Z" fill="#FF6B35"/>
<path d="M87.8558 35.507C88.1776 35.1912 88.3584 34.763 88.3584 34.3165C88.3584 33.87 88.1776 33.4418 87.8558 33.1259L87.1703 32.4538C86.8623 32.1531 86.5459 31.8592 86.2226 31.5762C85.7341 31.1462 85.2253 30.738 84.6962 30.3516C84.1966 29.9834 83.6827 29.6341 83.1545 29.304C82.4469 28.8632 81.7908 28.3476 81.198 27.7664L70.5354 17.3033C71.1223 16.0787 71.9064 13.6949 70.1871 12.0091C69.2324 11.073 67.4576 10.3233 65.6648 9.75726L68.8175 12.85C68.8961 12.927 68.9402 13.0315 68.9402 13.1404C68.9402 13.2494 68.8961 13.3539 68.8175 13.4309C68.7389 13.508 68.6323 13.5513 68.5212 13.5513C68.4101 13.5513 68.3035 13.508 68.225 13.4309L63.9871 9.27968C63.4584 9.14362 62.952 9.02252 62.4913 8.91912L67.656 13.9847C67.7342 14.0614 67.7782 14.1654 67.7782 14.2738C67.7782 14.3823 67.7342 14.4863 67.656 14.563C67.5778 14.6397 67.4718 14.6827 67.3612 14.6827C67.2506 14.6827 67.1445 14.6397 67.0663 14.563L60.9926 8.61298C60.4792 8.51773 60.1711 8.46875 60.1711 8.46875C60.1711 8.46875 60.2072 8.67284 60.2794 9.02116L66.4988 15.1195C66.5377 15.1576 66.5687 15.2029 66.5898 15.2528C66.611 15.3027 66.6219 15.3561 66.622 15.4102C66.622 15.4642 66.6112 15.5177 66.5902 15.5676C66.5692 15.6175 66.5384 15.6629 66.4994 15.7011C66.4605 15.7394 66.4143 15.7697 66.3635 15.7904C66.3126 15.8112 66.2581 15.8219 66.203 15.8219C66.1479 15.822 66.0933 15.8114 66.0424 15.7908C65.9915 15.7702 65.9452 15.74 65.9062 15.7018L60.6138 10.511C60.7234 10.9655 60.8539 11.4635 61.0037 12.0077L65.3415 16.261C65.3805 16.2993 65.4114 16.3447 65.4325 16.3946C65.4536 16.4446 65.4645 16.4981 65.4645 16.5522C65.4645 16.6063 65.4536 16.6598 65.4325 16.7098C65.4114 16.7597 65.3805 16.8051 65.3415 16.8434C65.3025 16.8816 65.2562 16.9119 65.2052 16.9326C65.1543 16.9533 65.0997 16.964 65.0445 16.964C64.9894 16.964 64.9348 16.9533 64.8838 16.9326C64.8329 16.9119 64.7866 16.8816 64.7476 16.8434L61.5158 13.669C62.1166 15.4379 62.9131 17.2216 63.8886 18.1781C65.5732 19.8299 67.9419 19.1306 69.2102 18.5564L79.9879 29.1216C80.5257 29.6494 81.0087 30.2282 81.4297 30.8496L81.6184 31.1285C81.7072 31.2646 81.7974 31.3884 81.8959 31.5177C79.8362 32.127 77.6635 32.2762 75.5372 31.9543C73.411 31.6324 71.3853 30.8476 69.609 29.6576C67.8326 28.4675 66.3506 26.9024 65.2719 25.0772C64.1931 23.2521 63.545 21.2131 63.3752 19.1102C63.2989 19.0449 63.2239 18.9741 63.1504 18.9034C62.5953 18.3591 62.0597 17.5631 61.5546 16.5359C61.5102 17.0189 61.4852 17.5074 61.4852 18.0026C61.4866 20.5436 62.1077 23.0475 63.2968 25.3052C64.4859 27.5629 66.2085 29.5091 68.3208 30.9811C70.4331 32.4532 72.8738 33.4086 75.4393 33.7675C78.0048 34.1264 80.6206 33.8784 83.0685 33.0443C83.5431 33.6076 84.0398 34.1505 84.5713 34.6675L85.4275 35.507C85.7496 35.8226 86.1863 35.9998 86.6416 35.9998C87.097 35.9998 87.5337 35.8226 87.8558 35.507Z" fill="#FF6B35"/>
<path d="M2.29354 33.9776H0.0441895V2.00977H19.8166V4.21397H2.34211V20.7864H17.9016V22.9906H2.34211L2.29354 33.9776Z" fill="#FF6B35"/>
<path d="M24.6956 17.9992C24.6956 14.8427 25.6501 11.7572 27.4384 9.13264C29.2268 6.5081 31.7686 4.46245 34.7426 3.25435C37.7166 2.04625 40.9891 1.72995 44.1464 2.34544C47.3037 2.96093 50.204 4.48058 52.4806 6.71223C54.7571 8.94388 56.3077 11.7873 56.9362 14.883C57.5647 17.9787 57.243 21.1876 56.0116 24.104C54.7803 27.0204 52.6947 29.5133 50.0185 31.2675C47.3423 33.0217 44.1958 33.9585 40.9767 33.9593C38.8383 33.9616 36.7204 33.5504 34.7443 32.7492C32.7682 31.948 30.9726 30.7725 29.4604 29.2901C27.9481 27.8077 26.7489 26.0473 25.9312 24.1099C25.1136 22.1724 24.6937 20.0959 24.6956 17.9992ZM26.9463 17.9992C26.9463 20.7194 27.7689 23.3786 29.3102 25.6405C30.8514 27.9024 33.0421 29.6653 35.6051 30.7064C38.1682 31.7476 40.9885 32.0201 43.7095 31.4896C46.4305 30.9591 48.93 29.6494 50.8919 27.726C52.8538 25.8027 54.19 23.3521 54.7316 20.6842C55.2732 18.0163 54.9958 15.2508 53.9345 12.7374C52.8732 10.2241 51.0757 8.07571 48.7692 6.56402C46.4628 5.05232 43.7509 4.24518 40.9767 4.24464C39.1338 4.24267 37.3087 4.59708 35.6057 5.28758C33.9028 5.97807 32.3554 6.99111 31.0522 8.26869C29.749 9.54627 28.7156 11.0633 28.011 12.733C27.3065 14.4027 26.9447 16.1922 26.9463 17.9992Z" fill="#FF6B35"/>
<path d="M105.988 2.05739C110.305 2.05739 114.445 3.73889 117.498 6.73199C120.55 9.72509 122.265 13.7846 122.265 18.0175C122.265 22.2504 120.55 26.3099 117.498 29.303C114.445 32.2961 110.305 33.9776 105.988 33.9776H99.4773V2.00977H105.988V2.05739ZM120.014 18.0175C120.016 16.2109 119.654 14.4217 118.95 12.7523C118.246 11.0829 117.213 9.56598 115.91 8.28845C114.607 7.01093 113.06 5.99781 111.358 5.30707C109.655 4.61633 107.831 4.26152 105.988 4.26296H101.727V31.772H105.988C107.831 31.7734 109.655 31.4186 111.358 30.7279C113.06 30.0372 114.607 29.024 115.91 27.7465C117.213 26.469 118.246 24.9521 118.95 23.2827C119.654 21.6133 120.016 19.8241 120.014 18.0175Z" fill="#FF6B35"/>
<path d="M127.099 33.9776V2.00977H129.348V33.9844L127.099 33.9776Z" fill="#FF6B35"/>
<path d="M153.956 33.9776H134.185V2.00977H153.956V4.21397H136.483V20.7864H151.802V22.9906H136.483V31.6741H153.956V33.9776Z" fill="#FF6B35"/>
</svg>
