<svg xmlns="http://www.w3.org/2000/svg" viewBox="0 0 500 500"><g id="freepik--background-complete--inject-3"><rect y="382.4" width="500" height="0.25" style="fill:#ebebeb"></rect><rect x="416.78" y="398.49" width="33.12" height="0.25" style="fill:#ebebeb"></rect><rect x="322.53" y="401.21" width="8.69" height="0.25" style="fill:#ebebeb"></rect><rect x="396.59" y="389.21" width="19.19" height="0.25" style="fill:#ebebeb"></rect><rect x="52.46" y="390.89" width="43.19" height="0.25" style="fill:#ebebeb"></rect><rect x="104.56" y="390.89" width="6.33" height="0.25" style="fill:#ebebeb"></rect><rect x="131.47" y="395.11" width="93.68" height="0.25" style="fill:#ebebeb"></rect><path d="M237,337.8H43.91a5.71,5.71,0,0,1-5.7-5.71V60.66A5.71,5.71,0,0,1,43.91,55H237a5.71,5.71,0,0,1,5.71,5.71V332.09A5.71,5.71,0,0,1,237,337.8ZM43.91,55.2a5.46,5.46,0,0,0-5.45,5.46V332.09a5.46,5.46,0,0,0,5.45,5.46H237a5.47,5.47,0,0,0,5.46-5.46V60.66A5.47,5.47,0,0,0,237,55.2Z" style="fill:#ebebeb"></path><path d="M453.31,337.8H260.21a5.72,5.72,0,0,1-5.71-5.71V60.66A5.72,5.72,0,0,1,260.21,55h193.1A5.71,5.71,0,0,1,459,60.66V332.09A5.71,5.71,0,0,1,453.31,337.8ZM260.21,55.2a5.47,5.47,0,0,0-5.46,5.46V332.09a5.47,5.47,0,0,0,5.46,5.46h193.1a5.47,5.47,0,0,0,5.46-5.46V60.66a5.47,5.47,0,0,0-5.46-5.46Z" style="fill:#ebebeb"></path><rect x="138.68" y="300.49" width="67.75" height="72.92" style="fill:#e6e6e6"></rect><rect x="208.26" y="295.07" width="8.52" height="87.81" style="fill:#e6e6e6"></rect><rect x="149.47" y="306.23" width="5.55" height="27.25" style="fill:#fafafa"></rect><rect x="172.48" y="306.23" width="5.55" height="27.25" style="fill:#f5f5f5"></rect><rect x="155.02" y="308.15" width="5.55" height="25.33" style="fill:#f5f5f5"></rect><rect x="166.93" y="308.15" width="5.55" height="25.33" style="fill:#fafafa"></rect><rect x="163.34" y="306.23" width="3.59" height="27.25" style="fill:#ebebeb"></rect><rect x="160.57" y="308.15" width="2.78" height="25.33" style="fill:#fafafa"></rect><rect x="178.03" y="306.23" width="5.55" height="27.25" style="fill:#ebebeb"></rect><rect x="183.58" y="308.15" width="5.55" height="25.33" style="fill:#e6e6e6"></rect><rect x="195.5" y="308.15" width="5.55" height="25.33" style="fill:#e6e6e6"></rect><rect x="191.91" y="306.23" width="3.59" height="27.25" style="fill:#fafafa"></rect><rect x="189.13" y="308.15" width="2.78" height="25.33" style="fill:#ebebeb"></rect><rect x="201.05" y="306.88" width="2.78" height="26.6" style="fill:#fafafa"></rect><rect x="198.27" y="342.76" width="5.55" height="27.25" transform="translate(402.09 712.76) rotate(180)" style="fill:#fafafa"></rect><rect x="175.26" y="342.76" width="5.55" height="27.25" transform="translate(356.06 712.76) rotate(180)" style="fill:#fafafa"></rect><rect x="192.72" y="344.67" width="5.55" height="25.33" transform="translate(390.99 714.68) rotate(180)" style="fill:#f0f0f0"></rect><rect x="180.81" y="344.67" width="5.55" height="25.33" transform="translate(367.17 714.68) rotate(180)" style="fill:#ebebeb"></rect><rect x="186.36" y="342.76" width="3.59" height="27.25" transform="translate(376.3 712.76) rotate(180)" style="fill:#fafafa"></rect><rect x="189.95" y="344.67" width="2.78" height="25.33" transform="translate(382.67 714.68) rotate(180)" style="fill:#f5f5f5"></rect><rect x="169.71" y="342.76" width="5.55" height="27.25" transform="translate(344.96 712.76) rotate(180)" style="fill:#ebebeb"></rect><rect x="164.15" y="344.67" width="5.55" height="25.33" transform="translate(333.86 714.68) rotate(180)" style="fill:#f5f5f5"></rect><rect x="152.24" y="344.67" width="5.55" height="25.33" transform="translate(310.03 714.68) rotate(180)" style="fill:#e6e6e6"></rect><rect x="157.79" y="342.76" width="3.59" height="27.25" transform="translate(319.17 712.76) rotate(180)" style="fill:#fafafa"></rect><rect x="145.88" y="342.76" width="3.59" height="27.25" transform="translate(295.35 712.76) rotate(180)" style="fill:#fafafa"></rect><rect x="161.38" y="344.67" width="2.78" height="25.33" transform="translate(325.53 714.68) rotate(180)" style="fill:#ebebeb"></rect><rect x="149.47" y="343.4" width="2.78" height="26.6" transform="translate(301.71 713.41) rotate(180)" style="fill:#f0f0f0"></rect><path d="M206.09,295.07H136.54V378h67.28v4.92h4.54v-87.8ZM203.82,370h-63V338.06h63Zm0-36.5h-63V303h63Z" style="fill:#f0f0f0"></path><rect x="70.83" y="300.49" width="67.75" height="72.92" transform="translate(209.4 673.91) rotate(180)" style="fill:#e6e6e6"></rect><rect x="73.43" y="377.06" width="8.52" height="5.81" transform="translate(155.38 759.94) rotate(180)" style="fill:#e6e6e6"></rect><rect x="130.74" y="306.23" width="5.55" height="27.25" transform="translate(267.03 639.72) rotate(180)" style="fill:#fafafa"></rect><rect x="107.72" y="306.23" width="5.55" height="27.25" transform="translate(221 639.72) rotate(180)" style="fill:#f5f5f5"></rect><rect x="125.19" y="308.15" width="5.55" height="25.33" transform="translate(255.93 641.63) rotate(180)" style="fill:#f5f5f5"></rect><rect x="113.27" y="308.15" width="5.55" height="25.33" transform="translate(232.1 641.63) rotate(180)" style="fill:#fafafa"></rect><rect x="118.82" y="306.23" width="3.59" height="27.25" transform="translate(241.24 639.72) rotate(180)" style="fill:#ebebeb"></rect><rect x="122.41" y="308.15" width="2.78" height="25.33" transform="translate(247.6 641.63) rotate(180)" style="fill:#fafafa"></rect><rect x="105.83" y="306.23" width="5.55" height="27.25" transform="translate(217.21 639.72) rotate(180)" style="fill:#ebebeb"></rect><rect x="100.28" y="308.15" width="5.55" height="25.33" transform="translate(206.11 641.63) rotate(180)" style="fill:#e6e6e6"></rect><rect x="88.37" y="308.15" width="5.55" height="25.33" transform="translate(182.28 641.63) rotate(180)" style="fill:#e6e6e6"></rect><rect x="93.92" y="306.23" width="3.59" height="27.25" transform="translate(191.42 639.72) rotate(180)" style="fill:#fafafa"></rect><rect x="97.51" y="308.15" width="2.78" height="25.33" transform="translate(197.79 641.63) rotate(180)" style="fill:#ebebeb"></rect><rect x="85.59" y="306.88" width="2.78" height="26.6" transform="translate(173.96 640.36) rotate(180)" style="fill:#f5f5f5"></rect><rect x="82.98" y="342.76" width="5.55" height="27.25" style="fill:#fafafa"></rect><rect x="106" y="342.76" width="5.55" height="27.25" style="fill:#fafafa"></rect><rect x="88.54" y="344.67" width="5.55" height="25.33" style="fill:#f5f5f5"></rect><rect x="100.45" y="344.67" width="5.55" height="25.33" style="fill:#ebebeb"></rect><rect x="96.86" y="342.76" width="3.59" height="27.25" style="fill:#fafafa"></rect><rect x="94.09" y="344.67" width="2.78" height="25.33" style="fill:#f5f5f5"></rect><rect x="107.89" y="342.76" width="5.55" height="27.25" style="fill:#ebebeb"></rect><rect x="113.44" y="344.67" width="5.55" height="25.33" style="fill:#f5f5f5"></rect><rect x="125.36" y="344.67" width="5.55" height="25.33" style="fill:#e6e6e6"></rect><rect x="121.77" y="342.76" width="3.59" height="27.25" style="fill:#fafafa"></rect><rect x="132.95" y="342.76" width="3.59" height="27.25" style="fill:#fafafa"></rect><rect x="118.99" y="344.67" width="2.78" height="25.33" style="fill:#ebebeb"></rect><rect x="130.91" y="343.4" width="2.78" height="26.6" style="fill:#ebebeb"></rect><path d="M68.9,295.07v87.8h4.54V378h67.28V295.07H68.9Zm4.54,43h63V370h-63Zm0-35h63v30.49h-63Z" style="fill:#f0f0f0"></path><rect x="73.77" y="86.63" width="143.13" height="147.9" transform="translate(290.67 321.15) rotate(180)" style="fill:#ebebeb"></rect><rect x="68.77" y="86.63" width="143.13" height="147.9" transform="translate(280.67 321.15) rotate(180)" style="fill:#f0f0f0"></rect><rect x="72.56" y="90.13" width="135.73" height="140.95" style="fill:#e0e0e0"></rect><rect x="75.95" y="90.13" width="132.34" height="140.95" style="fill:#f5f5f5"></rect><rect x="140.75" y="90.13" width="2.69" height="140.95" transform="translate(284.19 321.21) rotate(180)" style="fill:#ebebeb"></rect><polygon points="125.33 90.13 87.61 231.08 83.99 231.08 121.71 90.13 125.33 90.13" style="fill:#fff"></polygon><rect x="139.6" y="87.96" width="2.3" height="145.83" transform="translate(281.51 321.74) rotate(180)" style="fill:#f0f0f0"></rect><polygon points="111.64 90.13 75.95 223.52 75.95 150.2 92.02 90.13 111.64 90.13" style="fill:#fff"></polygon><polygon points="208.29 102.92 208.29 116.45 177.61 231.08 173.99 231.08 208.29 102.92" style="fill:#fff"></polygon><polygon points="208.29 130.24 208.29 203.56 200.93 231.08 181.31 231.08 208.29 130.24" style="fill:#fff"></polygon><circle cx="368.92" cy="104.71" r="20.45" transform="translate(-14.19 87.56) rotate(-13.28)" style="fill:#e0e0e0"></circle><circle cx="368.92" cy="104.71" r="17.39" transform="translate(34.01 291.53) rotate(-45)" style="fill:#f0f0f0"></circle><polyline points="368.1 116.64 368.1 104.48 360.04 109.04" style="fill:#f0f0f0"></polyline><path d="M368.1,117.64a1,1,0,0,1-1-1V106.2l-6.56,3.71a1,1,0,1,1-1-1.74l8.06-4.56a1,1,0,0,1,1,0,1,1,0,0,1,.5.86v12.16A1,1,0,0,1,368.1,117.64Z" style="fill:#e0e0e0"></path><rect x="304.5" y="162.79" width="128.84" height="5.26" style="fill:#e0e0e0"></rect><rect x="310.43" y="143.4" width="5.68" height="19.39" style="fill:#ebebeb"></rect><rect x="337.88" y="143.4" width="5.68" height="19.39" style="fill:#ebebeb"></rect><polygon points="378.85 162.03 373.26 162.79 369.12 143.69 374.71 142.92 378.85 162.03" style="fill:#ebebeb"></polygon><rect x="317.47" y="145.96" width="5.68" height="16.83" style="fill:#ebebeb"></rect><rect x="330.51" y="145.96" width="5.68" height="16.83" style="fill:#ebebeb"></rect><rect x="363.44" y="145.96" width="5.68" height="16.83" style="fill:#ebebeb"></rect><polygon points="355.6 161.81 350.06 162.79 345.47 146.36 351.01 145.38 355.6 161.81" style="fill:#ebebeb"></polygon><rect x="325.21" y="142.44" width="2.84" height="20.35" style="fill:#ebebeb"></rect><rect x="358.97" y="142.44" width="2.84" height="20.35" style="fill:#ebebeb"></rect><rect x="393.32" y="147.45" width="27.66" height="15.17" style="fill:#ebebeb"></rect></g><g id="freepik--Shadow--inject-3"><ellipse id="freepik--path--inject-3" cx="250" cy="416.24" rx="193.89" ry="11.32" style="fill:#f5f5f5"></ellipse></g><g id="freepik--Plant--inject-3"><path d="M81.26,365.83s-6.18,1.35-8.82,0-1.65-21-4.35-21.38c-6.2-.94-5.14,25.14-2.5,30.63s16.23,3.16,16.23,3.16Z" style="fill:#FF725E"></path><path d="M81.26,365.83s-6.18,1.35-8.82,0-1.65-21-4.35-21.38c-6.2-.94-5.14,25.14-2.5,30.63s16.23,3.16,16.23,3.16Z" style="fill:#fff;opacity:0.2;isolation:isolate"></path><path d="M81.77,402.07s-9.15-87.14,1.77-88.67,13.56-.58,9.34,87Z" style="fill:#FF725E"></path><path d="M81.77,402.07s-9.15-87.14,1.77-88.67,13.56-.58,9.34,87Z" style="fill:#fff;opacity:0.30000000000000004;isolation:isolate"></path><polygon points="68.94 392.23 104.87 392.23 101.87 415.22 71.94 415.22 68.94 392.23" style="fill:#263238"></polygon><path d="M92.62,348.05s9.95.87,10.25,0,.3-19.72,4.52-18.6,2.37,23.79,0,26.43S92.62,360,92.62,360,91,351.58,92.62,348.05Z" style="fill:#FF725E"></path><path d="M92.62,348.05s9.95.87,10.25,0,.3-19.72,4.52-18.6,2.37,23.79,0,26.43S92.62,360,92.62,360,91,351.58,92.62,348.05Z" style="fill:#fff;opacity:0.4;isolation:isolate"></path><path d="M86.31,389.91q-1.09-9.45-2-18.92t-1.51-19c-.42-6.33-.71-12.67-.79-19,0-3.18,0-6.36.18-9.54a43.13,43.13,0,0,1,.53-4.78,13.19,13.19,0,0,1,.63-2.39,3.92,3.92,0,0,1,.67-1.18,2.89,2.89,0,0,1,.31-.28,1.41,1.41,0,0,1,.5-.19,1.15,1.15,0,0,1,.93.41,6.22,6.22,0,0,1,1,2.4c.2.79.36,1.58.49,2.37.26,1.57.46,3.16.62,4.74.33,3.16.56,6.33.75,9.5q.55,9.51.75,19t.24,19q0,9.51-.12,19-.12-9.51-.37-19c-.13-6.34-.29-12.68-.52-19s-.47-12.67-.88-19c-.21-3.16-.45-6.32-.8-9.46-.17-1.57-.37-3.13-.64-4.68-.13-.77-.29-1.54-.48-2.29a5.61,5.61,0,0,0-.79-2c-.08-.11-.12-.08-.09-.1s0,0,0,0l-.12.11a3.28,3.28,0,0,0-.5.89,11.84,11.84,0,0,0-.58,2.2,42,42,0,0,0-.54,4.66c-.2,3.15-.24,6.31-.22,9.47,0,6.33.34,12.66.65,19s.75,12.65,1.22,19S85.75,383.6,86.31,389.91Z" style="fill:#FF725E"></path><path d="M93.87,352.52c1.29-.12,2.57-.21,3.85-.35s2.55-.26,3.81-.47a18,18,0,0,0,1.83-.41c.56-.12,1.23-.52,1-.58a12.49,12.49,0,0,1,0-2c0-.65.08-1.29.14-1.94.23-2.57.53-5.13.93-7.68a72.76,72.76,0,0,1,1.46-7.6c-.14,1.28-.25,2.56-.35,3.85l-.35,3.84-.7,7.68a35.06,35.06,0,0,0-.2,3.74v.14a2.35,2.35,0,0,1,0,.26.94.94,0,0,1-.21.41,1.32,1.32,0,0,1-.53.4,4.64,4.64,0,0,1-1,.36,13.56,13.56,0,0,1-2,.32A46.78,46.78,0,0,1,93.87,352.52Z" style="fill:#FF725E"></path><path d="M93.87,356.87l4.25-.94c1.41-.3,2.83-.6,4.23-.94a31.76,31.76,0,0,0,4.07-1.16,1,1,0,0,0,.25-.15,1.73,1.73,0,0,0,.16-.38,7,7,0,0,0,.25-1c.13-.69.22-1.4.3-2.11.34-2.85.5-5.74.71-8.63l.29-4.33.33-4.33c.17,2.9.19,5.8.15,8.7s-.17,5.8-.48,8.7c-.09.73-.19,1.46-.34,2.19a8,8,0,0,1-.3,1.11,2.39,2.39,0,0,1-.29.61,1.37,1.37,0,0,1-.63.45,24.07,24.07,0,0,1-4.32,1.06C99.64,356.24,96.76,356.63,93.87,356.87Z" style="fill:#FF725E"></path><path d="M78.18,369.47a23.44,23.44,0,0,1-7.6-.88,4.69,4.69,0,0,1-.94-.44,1.32,1.32,0,0,1-.46-.43,1.94,1.94,0,0,1-.26-.49,10.06,10.06,0,0,1-.54-1.92,38.13,38.13,0,0,1-.48-3.81c-.2-2.54-.28-5.08-.26-7.61s.09-5.07.32-7.6l.25,3.79.2,3.79c.16,2.52.27,5,.48,7.55.1,1.25.22,2.5.42,3.72a10.19,10.19,0,0,0,.41,1.75,2,2,0,0,0,.17.36.69.69,0,0,0,.21.21,5,5,0,0,0,.76.42,17.5,17.5,0,0,0,3.58,1C75.67,369.12,76.93,369.29,78.18,369.47Z" style="fill:#FF725E"></path><path d="M66.12,348.66c.14,1.48.23,3,.36,4.43l.3,4.44c.21,3,.38,5.9.61,8.84.12,1.47.24,2.95.43,4.39a11.07,11.07,0,0,0,.4,2.06c.16.58.75.91,1.37,1.23a18.7,18.7,0,0,0,4.2,1.13c1.45.28,2.92.45,4.39.62a26.21,26.21,0,0,1-8.89-1,5.84,5.84,0,0,1-1.07-.57,2,2,0,0,1-.8-1,11.07,11.07,0,0,1-.53-2.27c-.24-1.49-.36-3-.49-4.45-.22-3-.35-5.93-.39-8.89S66,351.63,66.12,348.66Z" style="fill:#FF725E"></path></g><g id="freepik--window-2--inject-3"><path d="M408.44,108v81.19a2.72,2.72,0,0,1-2.72,2.72H281a2.72,2.72,0,0,1-2.72-2.72V108a2.72,2.72,0,0,1,2.72-2.72H405.72A2.72,2.72,0,0,1,408.44,108Z" style="fill:#FF725E"></path><path d="M408.44,114.42v74.72a2.72,2.72,0,0,1-2.72,2.72H281a2.72,2.72,0,0,1-2.72-2.72V114.42Z" style="fill:#fff;opacity:0.6000000000000001;isolation:isolate"></path><circle cx="402.98" cy="110.06" r="1.88" style="fill:#fff;opacity:0.4;isolation:isolate"></circle><circle cx="395.86" cy="110.06" r="1.88" style="fill:#fff;opacity:0.4;isolation:isolate"></circle><path d="M390.62,110.06a1.88,1.88,0,1,1-1.88-1.88A1.88,1.88,0,0,1,390.62,110.06Z" style="fill:#fff;opacity:0.4;isolation:isolate"></path><rect x="282.64" y="119.4" width="121.38" height="68.31" style="fill:#fff;opacity:0.2;isolation:isolate"></rect><polygon points="404.02 147.52 404.02 149.23 394.77 159.32 382.81 152.51 379.86 157.2 378.51 159.34 367.44 176.92 357.86 159.16 357.28 158.07 351.82 147.96 338.39 168.91 328.01 166.24 315.18 170.6 310.24 167.88 282.64 173.35 282.64 172.16 310.42 166.66 315.3 169.33 327.98 165.02 337.87 167.59 351.92 145.67 358.1 157.18 358.7 158.25 367.51 174.63 376.32 160.62 377.67 158.49 382.42 150.94 394.54 157.85 404.02 147.52" style="fill:#fff"></polygon><path d="M404,162.06v1.2l-7.13,1.59-14.27-7.93-4.11,2.41-2.19,1.29-3.05,1.8-9.34-9.84-5.23,5.67-.84.91-20.43,22.15-8.69-12.05-15.8,4.89-8.16-2.67c-7.19,2.52-16.92,6-22.14,7.86V178.1c3.62-1.34,10.15-3.64,21.94-7.78l.19-.06,8.18,2.67,16.26-5,8.32,11.58,19.75-21.41.82-.89,5.82-6.31L373.48,161l4.19-2.47,2.19-1.29,2.75-1.63,14.46,8.05Z" style="fill:#FF725E"></path></g><g id="freepik--window-1--inject-3"><path d="M296.63,139.72V287.91a2.72,2.72,0,0,1-2.72,2.72H79.14a2.72,2.72,0,0,1-2.72-2.72V139.72A2.72,2.72,0,0,1,79.14,137H293.91A2.72,2.72,0,0,1,296.63,139.72Z" style="fill:#FF725E"></path><path d="M296.63,146.19V287.91a2.72,2.72,0,0,1-2.72,2.72H79.14a2.72,2.72,0,0,1-2.72-2.72V146.19Z" style="fill:#fff;opacity:0.4;isolation:isolate"></path><path d="M296.63,281.88v6a2.72,2.72,0,0,1-2.72,2.72H79.14a2.72,2.72,0,0,1-2.72-2.72v-6Z" style="opacity:0.2;isolation:isolate"></path><circle cx="291.17" cy="141.83" r="1.88" style="fill:#fff;opacity:0.4;isolation:isolate"></circle><circle cx="284.05" cy="141.83" r="1.88" style="fill:#fff;opacity:0.4;isolation:isolate"></circle><path d="M278.81,141.83a1.88,1.88,0,1,1-1.88-1.88A1.88,1.88,0,0,1,278.81,141.83Z" style="fill:#fff;opacity:0.4;isolation:isolate"></path><rect x="76.42" y="146.19" width="220.21" height="8.91" style="opacity:0.2;isolation:isolate"></rect><path d="M84.37,151.05h-4a.5.5,0,0,1-.5-.5.5.5,0,0,1,.5-.5h4a.5.5,0,0,1,.5.5A.5.5,0,0,1,84.37,151.05Z" style="fill:#fff"></path><path d="M81.55,152.67a.5.5,0,0,1-.35-.15l-1.62-1.62a.5.5,0,0,1,0-.71l1.62-1.62a.5.5,0,0,1,.71.71l-1.27,1.27,1.27,1.26a.51.51,0,0,1,0,.71A.51.51,0,0,1,81.55,152.67Z" style="fill:#fff"></path><path d="M292.56,149.05h-4.25a.5.5,0,0,1-.5-.5.5.5,0,0,1,.5-.5h4.25a.5.5,0,0,1,.5.5A.5.5,0,0,1,292.56,149.05Z" style="fill:#fff"></path><path d="M292.56,151.05h-4.25a.5.5,0,0,1-.5-.5.5.5,0,0,1,.5-.5h4.25a.5.5,0,0,1,.5.5A.5.5,0,0,1,292.56,151.05Z" style="fill:#fff"></path><path d="M292.56,153.05h-4.25a.5.5,0,0,1-.5-.5.5.5,0,0,1,.5-.5h4.25a.5.5,0,0,1,.5.5A.5.5,0,0,1,292.56,153.05Z" style="fill:#fff"></path><path d="M131.5,170.69H87.59a1,1,0,1,1,0-2H131.5a1,1,0,0,1,0,2Z" style="fill:#fff"></path><path d="M166.71,181.11H87.59a1,1,0,0,1,0-2h79.12a1,1,0,1,1,0,2Z" style="fill:#fff"></path><path d="M166.71,187.55H87.59a1,1,0,1,1,0-2h79.12a1,1,0,0,1,0,2Z" style="fill:#fff"></path><path d="M166.71,194H87.59a1,1,0,0,1,0-2h79.12a1,1,0,1,1,0,2Z" style="fill:#fff"></path><path d="M166.71,200.44H87.59a1,1,0,1,1,0-2h79.12a1,1,0,0,1,0,2Z" style="fill:#fff"></path><path d="M166.71,206.88H87.59a1,1,0,0,1,0-2h79.12a1,1,0,1,1,0,2Z" style="fill:#fff"></path><path d="M166.71,213.33H87.59a1,1,0,0,1,0-2h79.12a1,1,0,0,1,0,2Z" style="fill:#fff"></path><path d="M166.71,219.77H87.59a1,1,0,0,1,0-2h79.12a1,1,0,0,1,0,2Z" style="fill:#fff"></path><path d="M166.71,226.21H87.59a1,1,0,0,1,0-2h79.12a1,1,0,0,1,0,2Z" style="fill:#fff"></path><rect x="180.9" y="166.38" width="104.55" height="58.84" style="fill:#fff;opacity:0.4;isolation:isolate"></rect><polygon points="180.9 213.38 206.4 208.33 210.36 210.5 220.64 207.01 228.82 209.12 239.9 191.83 252.48 215.19 264.69 195.79 274.39 201.33 285.45 189.27 285.45 225.21 180.9 225.21 180.9 213.38" style="fill:#fff"></polygon><path d="M180.9,218.77c0-.15,21-7.54,21-7.54l6.59,2.15,12.92-4,6.86,9.54,21.33-23.13,7.61,8,7.46-4.39,11.58,6.44,9.18-2v21.38H180.9Z" style="fill:#FF725E;isolation:isolate"></path><circle cx="162.02" cy="255.5" r="19.21" style="fill:#fff;opacity:0.30000000000000004;isolation:isolate"></circle><path d="M162,255.5h19.21A19.21,19.21,0,1,1,162,236.29h0Z" style="fill:#FF725E"></path><circle cx="162.02" cy="255.5" r="12.6" style="fill:#fff"></circle><path d="M166.44,256.5h-8.83a1,1,0,0,1,0-2h8.83a1,1,0,0,1,0,2Z" style="fill:#FF725E"></path><circle cx="211.02" cy="255.5" r="19.21" style="fill:#fff;opacity:0.30000000000000004;isolation:isolate"></circle><path d="M211,255.5l13.15,14A19.21,19.21,0,1,1,211,236.29h0Z" style="fill:#FF725E"></path><circle cx="211.02" cy="255.5" r="12.6" style="fill:#fff"></circle><path d="M215.43,256.5H206.6a1,1,0,0,1,0-2h8.83a1,1,0,0,1,0,2Z" style="fill:#FF725E"></path><circle cx="260.01" cy="255.5" r="19.21" style="fill:#fff;opacity:0.30000000000000004;isolation:isolate"></circle><path d="M260,255.5h19.21a19.21,19.21,0,1,1-34.19-12Z" style="fill:#FF725E"></path><circle cx="260.01" cy="255.5" r="12.6" style="fill:#fff"></circle><path d="M264.43,256.5h-8.84a1,1,0,0,1,0-2h8.84a1,1,0,1,1,0,2Z" style="fill:#FF725E"></path><circle cx="113.03" cy="255.5" r="19.21" style="fill:#fff;opacity:0.30000000000000004;isolation:isolate"></circle><path d="M113,255.5l16.64-9.59A19.21,19.21,0,0,0,113,236.29h0Z" style="fill:#FF725E"></path><circle cx="113.03" cy="255.5" r="12.6" style="fill:#fff"></circle><path d="M117.45,256.5h-8.83a1,1,0,0,1,0-2h8.83a1,1,0,0,1,0,2Z" style="fill:#FF725E"></path><path d="M193.79,119.85a1.45,1.45,0,0,1-1.06-.44,8.78,8.78,0,0,0-12.41,0,1.5,1.5,0,0,1-2.13-2.12,11.78,11.78,0,0,1,16.66,0,1.51,1.51,0,0,1,0,2.12A1.48,1.48,0,0,1,193.79,119.85Z" style="fill:#FF725E"></path><path d="M199.13,114.51a1.49,1.49,0,0,1-1.07-.44,16.34,16.34,0,0,0-23.08,0,1.5,1.5,0,0,1-2.12-2.12,19.36,19.36,0,0,1,27.33,0,1.51,1.51,0,0,1,0,2.12A1.48,1.48,0,0,1,199.13,114.51Z" style="fill:#FF725E"></path><path d="M204.08,109.56a1.53,1.53,0,0,1-1.06-.44,23.32,23.32,0,0,0-33,0,1.51,1.51,0,0,1-2.12,0,1.49,1.49,0,0,1,0-2.12,26.31,26.31,0,0,1,37.24,0,1.5,1.5,0,0,1-1.06,2.56Z" style="fill:#FF725E"></path><path d="M189.42,125.28a2.9,2.9,0,1,1-2.9-2.9A2.89,2.89,0,0,1,189.42,125.28Z" style="fill:#FF725E"></path></g><g id="freepik--Character--inject-3"><rect x="250.12" y="397.47" width="168.49" height="17.74" style="fill:#FF725E"></rect><rect x="250.12" y="397.47" width="168.49" height="17.74" style="fill:#fff;opacity:0.4;isolation:isolate"></rect><rect x="250.12" y="397.47" width="102.46" height="17.74" style="fill:#fff;opacity:0.2;isolation:isolate"></rect><path d="M312.51,354.66H425l17.14-88.56a15.68,15.68,0,0,0-15.4-18.67H346.21a15.69,15.69,0,0,0-15.4,12.71Z" style="fill:#FF725E"></path><path d="M393.08,354.66h32l17.14-88.56a15.68,15.68,0,0,0-15.4-18.67h0a15.69,15.69,0,0,0-15.4,12.71Z" style="opacity:0.30000000000000004;isolation:isolate"></path><rect x="238.07" y="353.57" width="191.23" height="46.66" rx="7.91" style="fill:#FF725E"></rect><rect x="345.27" y="353.57" width="84.03" height="46.66" rx="7.91" style="opacity:0.30000000000000004;isolation:isolate"></rect><path d="M340.09,255.87c-6.68.48-9,32.08-9.44,33.46s-18.14,28.48-18.14,28.48l3.63,3.76s24.33-22.94,25.12-31.25S346,255.44,340.09,255.87Z" style="fill:#263238"></path><path d="M342.38,280.09c-.43,4.17-.9,7.91-1.12,10.23-.24,2.54-2.67,6.43-5.93,10.61-4.71-10.07,2.55-32.37,2.55-32.37S340.14,273.66,342.38,280.09Z" style="opacity:0.2;isolation:isolate"></path><polygon points="306.05 405.19 312.63 402.57 310.06 392.98 307.69 384.18 299.37 386.02 302.9 396.18 306.05 405.19" style="fill:#ebb376"></polygon><polygon points="302.98 396.38 310.13 393.16 307.72 384.27 299.38 386.07 302.98 396.38" style="opacity:0.2;isolation:isolate"></polygon><path d="M355.84,318.78s-55-7.41-70.28,2.34,14.31,69.21,14.31,69.21l9.26-2.05s-6.94-47.12-6.42-49.09,26.41,10.88,61.86,12.1Z" style="fill:#FF725E"></path><path d="M355.84,318.78s-55-7.41-70.28,2.34,14.31,69.21,14.31,69.21l9.26-2.05s-6.94-47.12-6.42-49.09,26.41,10.88,61.86,12.1Z" style="fill:#fff;opacity:0.5;isolation:isolate"></path><polygon points="246.76 402.25 251.86 407.17 259.55 400.88 266.59 395.1 261.49 388.28 253.69 395.67 246.76 402.25" style="fill:#ebb376"></polygon><path d="M253.86,408c.62-.48-5.57-7.83-5.57-7.83s-8.34-1.18-12.83-5-5.35.81-1.55,6l9.42,12.75C246,417.56,247.47,413,253.86,408Z" style="fill:#2e353a"></path><path d="M246.78,400.06a.27.27,0,0,1-.12,0c-.62-.33-3.71-2-3.65-3.28,0-.24.14-.57.68-.79a1.06,1.06,0,0,1,.82,0,4.09,4.09,0,0,1,1.49,1.64c-.14-.89-.15-1.77.25-2.1a.89.89,0,0,1,1,0,1.51,1.51,0,0,1,.76,1c.33,1.37-1,3.34-1,3.43a.27.27,0,0,1-.16.1h0Zm-2.72-3.68a.58.58,0,0,0-.19,0c-.37.15-.37.31-.38.36,0,.6,1.47,1.72,2.8,2.5-.45-1-1.24-2.51-2-2.84A.59.59,0,0,0,244.06,396.38Zm2.61-.51a.2.2,0,0,0-.11,0c-.34.29-.12,1.85.29,3.33a4.25,4.25,0,0,0,.7-2.58A1,1,0,0,0,247,396,.85.85,0,0,0,246.67,395.87Z" style="fill:#577afa"></path><polygon points="253.54 395.83 259.41 401.02 266.52 395.17 261.46 388.31 253.54 395.83" style="opacity:0.2;isolation:isolate"></polygon><path d="M340.24,325.89s.79-10.88,1.16-13.1a50,50,0,0,1,1.34-6.51c2.42-7.26,34.75,1.27,34.75,1.27s19.12,28.8,5.76,42.39c-3,3-8.77,4.37-14.71,4.32,0,0-18.13.87-51.84-.7,0,0-11.87,17.67-53,45.77l-6.71-7s46.51-53.46,48-54.7C318.48,326.75,340.24,325.89,340.24,325.89Z" style="fill:#FF725E"></path><path d="M340.24,325.89s.79-10.88,1.16-13.1a50,50,0,0,1,1.34-6.51c2.42-7.26,34.75,1.27,34.75,1.27s19.12,28.8,5.76,42.39c-3,3-8.77,4.37-14.71,4.32,0,0-18.13.87-51.84-.7,0,0-11.87,17.67-53,45.77l-6.71-7s46.51-53.46,48-54.7C318.48,326.75,340.24,325.89,340.24,325.89Z" style="fill:#fff;opacity:0.6000000000000001;isolation:isolate"></path><polygon points="266.77 398.27 258.53 389.2 254.55 393.29 262.27 401.55 266.77 398.27" style="fill:#FF725E"></polygon><path d="M380.35,266.15c-3.19,9.59-3.34,31.23-2.21,43.2L342,309.12c-6.22-23.86-4.12-40.6-3.59-46.19.66-6.81,1.71-7.06,1.71-7.06s7.38-.72,13.8-.67a105.35,105.35,0,0,1,14.82,1.56,99.18,99.18,0,0,1,10.8,2.43,2.87,2.87,0,0,1,1.93,3.68C381.06,264,380.69,265.1,380.35,266.15Z" style="fill:#263238"></path><path d="M342,309.12l21.81.14,14.36.09a180.13,180.13,0,0,1,.29-33.47,51.43,51.43,0,0,1,1.92-9.72c.34-1.06.71-2.16,1.09-3.28a2.87,2.87,0,0,0-1.93-3.69,99.18,99.18,0,0,0-10.8-2.43,105.35,105.35,0,0,0-14.82-1.56c-6.42,0-13.8.67-13.8.67s-1,.26-1.71,7.06C337.85,268.52,335.75,285.26,342,309.12Z" style="fill:#fff;opacity:0.1;isolation:isolate"></path><path d="M378.14,309.35a180.13,180.13,0,0,1,.29-33.47C374,282.2,366.15,295,363.78,309.26Z" style="opacity:0.2;isolation:isolate"></path><path d="M354.57,322.3s-9,5.87-10.06,6.34-7.73,2.1-9.65,2,.65-6.1,2.3-6.88,7.55.29,7.55.29l7-5.26Z" style="fill:#e4897b"></path><path d="M292.84,328.64v2.94c0,.75.89,1.06,1.64,1.06h58.7c.76,0,1.66-.31,1.66-1.06v-2.94Z" style="fill:#263238"></path><path d="M292.84,328.64v2.94c0,.75.89,1.06,1.64,1.06h58.7c.76,0,1.66-.31,1.66-1.06v-2.94Z" style="fill:#fff;opacity:0.4;isolation:isolate"></path><path d="M292.84,328.64v2.94c0,.75.89,1.06,1.64,1.06H333.2c.75,0,1.64-.31,1.64-1.06v-2.94Z" style="opacity:0.2;isolation:isolate"></path><path d="M283,298.14l7,31.7a2.38,2.38,0,0,0,2.27,1.8h38.17a1.54,1.54,0,0,0,1.44-2l-7-31.46a2.17,2.17,0,0,0-2.27-1.55H284.46C283.44,296.64,282.79,297.1,283,298.14Z" style="fill:#263238"></path><path d="M283,298.14l7,31.7a2.38,2.38,0,0,0,2.27,1.8h36.88a1.54,1.54,0,0,0,1.44-2l-7-31.46a2.17,2.17,0,0,0-2.27-1.55H284.46C283.44,296.64,282.79,297.1,283,298.14Z" style="fill:#fff;opacity:0.4;isolation:isolate"></path><path d="M301.84,314.25h0c0,2.71,2.91,4.92,5.05,4.92s3.39-2.21,2.79-4.92-2.73-4.83-4.82-4.91c.61,2.71-.7,4.91-2.82,4.91Z" style="opacity:0.2;isolation:isolate"></path><path d="M381.06,260.3c-7.17-5.75-4.45,26.66-7.83,34.05s-23.54,24.83-23.54,24.83L354,324s24.6-13.57,28.05-22.67C386.45,289.82,386.36,264.55,381.06,260.3Z" style="fill:#263238"></path><polygon points="349.69 319.18 346.93 321.51 350.72 326.13 354.02 324.04 349.69 319.18" style="fill:#FF725E"></polygon><polygon points="309.64 385.32 297.99 389.1 300.08 394.41 310.78 390.77 309.64 385.32" style="fill:#FF725E"></polygon><path d="M298.81,406.48a1.24,1.24,0,0,1-.76-.2.92.92,0,0,1-.27-1,1,1,0,0,1,.49-.66,4,4,0,0,1,2.19-.31c-.81-.39-1.54-.88-1.58-1.39,0-.32.17-.59.59-.81a1.44,1.44,0,0,1,1.23-.08c1.32.5,2.19,2.69,2.23,2.8a.15.15,0,0,1,0,.09h0s0,.05,0,.07a.43.43,0,0,1,0,.07h0l-.08.06A11.67,11.67,0,0,1,298.81,406.48Zm1.05-1.71a2.66,2.66,0,0,0-1.34.26.5.5,0,0,0-.26.35c-.09.39,0,.48.08.52.47.36,2.24-.24,3.64-.9A12.74,12.74,0,0,0,299.86,404.77Zm.31-2.36a1,1,0,0,0-.48.13c-.13.06-.35.2-.33.34,0,.44,1.45,1.15,2.9,1.64a4.14,4.14,0,0,0-1.73-2A1.15,1.15,0,0,0,300.17,402.41Z" style="fill:#577afa"></path><path d="M314,402.4c0-.78-9.61.15-9.61.15s-5.7,6.21-11.38,7.75-2.37,4.87,4,4.65l15.84-.54C317.41,414.26,314.44,410.48,314,402.4Z" style="fill:#2e353a"></path><path d="M360.75,253.5s8.79-.71,11,3.81-2,11.25-2,11.25l-6.35-4.75-13.06,4.75L346.93,264l-2.55,1.39S344.24,251.48,360.75,253.5Z" style="fill:#FF725E"></path><path d="M360.75,253.5s8.79-.71,11,3.81-2,11.25-2,11.25l-6.35-4.75-13.06,4.75L346.93,264l-2.55,1.39S344.24,251.48,360.75,253.5Z" style="fill:#fff;opacity:0.2;isolation:isolate"></path><path d="M367.19,258s-3.31,4.73-15.79,8.95c0,0-5.56-7.07,2.89-10.3,0,0,1.76-.55,2.14-3.35a13.58,13.58,0,0,0-.75-5.83c-.09-.3-.2-.62-.31-.94l10.28-6.43S362,253.1,367.19,258Z" style="fill:#e4897b"></path><path d="M363.34,243.8s-.55,7.35-6.91,9.47a13.58,13.58,0,0,0-.75-5.83C359.43,245.46,363.34,243.8,363.34,243.8Z" style="opacity:0.2;isolation:isolate"></path><path d="M350.16,222.28a10.48,10.48,0,0,1,7.91-11.37,13.58,13.58,0,0,1,6.78-.18,16.9,16.9,0,0,1,13.08,16.11c.28,8.41-1.68,19.16-13.82,18.19C344.4,243.45,350.16,222.28,350.16,222.28Z" style="fill:#263238"></path><path d="M360.63,219.2c-8.48-.79-11.64,3.49-13.08,12.18-1.8,10.86-.11,18.85,10.72,17.51C373,247.07,374.73,220.52,360.63,219.2Z" style="fill:#e4897b"></path><path d="M353.08,231.42a18.21,18.21,0,0,1-2.8,3.29,2.35,2.35,0,0,0,2.15,1.17Z" style="fill:#de5753"></path><path d="M358.34,231.21c-.08.7.23,1.31.69,1.36s.91-.46,1-1.16-.23-1.3-.7-1.36S358.42,230.52,358.34,231.21Z" style="fill:#263238"></path><path d="M359.51,230.11l-1.44-.77S358.68,230.7,359.51,230.11Z" style="fill:#263238"></path><path d="M349.71,230.05c-.08.7.22,1.31.69,1.36s.9-.46,1-1.16-.23-1.3-.7-1.36S349.79,229.36,349.71,230.05Z" style="fill:#263238"></path><path d="M350.88,229l-1.44-.77S350,229.54,350.88,229Z" style="fill:#263238"></path><path d="M362.53,227.35a.38.38,0,0,1-.3-.16,4.14,4.14,0,0,0-3.25-1.47.36.36,0,0,1-.37-.35A.36.36,0,0,1,359,225a4.74,4.74,0,0,1,3.87,1.79.35.35,0,0,1-.1.5A.36.36,0,0,1,362.53,227.35Z" style="fill:#263238"></path><path d="M349.39,225.17a.36.36,0,0,1-.32-.19.35.35,0,0,1,.15-.49,4.31,4.31,0,0,1,3.77-.39.36.36,0,1,1-.31.65,3.66,3.66,0,0,0-3.12.37A.34.34,0,0,1,349.39,225.17Z" style="fill:#263238"></path><path d="M368.57,234.37s-3.32-7.34-2.21-12.67c0,0-16.18-8.44-18.61,8.55,0,0-.22-15.31,14.4-14.29s12.56,22.37,4.43,28C366.58,244,370.62,239,368.57,234.37Z" style="fill:#263238"></path><path d="M367,236a3.74,3.74,0,0,1,4.33-3c2.6.53,3.35,6.05-3.31,6.73C367.07,239.84,366.63,238.87,367,236Z" style="fill:#e4897b"></path><path d="M351.12,239.15a21.48,21.48,0,0,1,.92,2.91l.54,0c2.43-.21,3.48-1.11,3.92-2a3.1,3.1,0,0,0,.26-1.47,3.26,3.26,0,0,0-.14-.84,11.54,11.54,0,0,1-4.68,1.4C351.44,239.14,351.12,239.15,351.12,239.15Z" style="fill:#263238"></path><path d="M351.94,239.07l.3.85c2.28-.2,3.87-.65,4.52-1.41a3.26,3.26,0,0,0-.14-.84A11.54,11.54,0,0,1,351.94,239.07Z" style="fill:#fff"></path><path d="M352.58,242c2.43-.21,3.48-1.11,3.92-2a7.94,7.94,0,0,0-2.65.76A2.94,2.94,0,0,0,352.58,242Z" style="fill:#de5753"></path><path d="M375.39,227.86s-4.09-6.49,2.84-9.06,13.65,6.34,9.49,12.51a9.54,9.54,0,0,1-10.78,3.92Z" style="fill:#263238"></path></g></svg>